<svg width="59" height="58" viewBox="0 0 59 58" fill="none" xmlns="http://www.w3.org/2000/svg"><path d="M38.7293 29C38.7293 31.4035 37.7745 33.7086 36.0749 35.4082C34.3754 37.1077 32.0703 38.0625 29.6667 38.0625C27.2632 38.0625 24.9581 37.1077 23.2586 35.4082C21.559 33.7086 20.6042 31.4035 20.6042 29C20.6042 28.4834 20.6586 27.979 20.7523 27.4896H17.5834V39.5639C17.5834 40.4036 18.2631 41.0833 19.1029 41.0833H40.2336C40.6361 41.0825 41.0218 40.9221 41.3061 40.6372C41.5904 40.3523 41.7501 39.9663 41.7501 39.5639V27.4896H38.5812C38.6749 27.979 38.7293 28.4834 38.7293 29ZM29.6667 35.0417C30.4604 35.0415 31.2461 34.885 31.9793 34.5811C32.7124 34.2772 33.3785 33.8319 33.9395 33.2706C34.5005 32.7093 34.9455 32.043 35.249 31.3097C35.5525 30.5764 35.7086 29.7906 35.7084 28.997C35.7082 28.2034 35.5517 27.4176 35.2478 26.6845C34.9439 25.9514 34.4986 25.2853 33.9373 24.7243C33.376 24.1632 32.7097 23.7183 31.9765 23.4147C31.2432 23.1112 30.4573 22.9551 29.6637 22.9553C28.061 22.9557 26.524 23.5928 25.391 24.7264C24.258 25.86 23.6217 27.3973 23.6221 29C23.6225 30.6028 24.2595 32.1397 25.3931 33.2727C26.5267 34.4058 28.064 35.0421 29.6667 35.0417ZM36.9167 22.6562H40.5387C40.7794 22.6562 41.0102 22.5609 41.1806 22.391C41.351 22.2211 41.4472 21.9906 41.448 21.75V18.128C41.448 17.8869 41.3522 17.6556 41.1817 17.4851C41.0112 17.3145 40.7799 17.2187 40.5387 17.2187H36.9167C36.6756 17.2187 36.4443 17.3145 36.2738 17.4851C36.1033 17.6556 36.0075 17.8869 36.0075 18.128V21.75C36.0105 22.2484 36.4183 22.6562 36.9167 22.6562ZM29.6667 0C21.9755 0 14.5992 3.05535 9.16065 8.4939C3.7221 13.9325 0.666748 21.3087 0.666748 29C0.666748 36.6913 3.7221 44.0675 9.16065 49.5061C14.5992 54.9447 21.9755 58 29.6667 58C33.4751 58 37.2461 57.2499 40.7646 55.7925C44.283 54.3351 47.4799 52.199 50.1728 49.5061C52.8657 46.8132 55.0019 43.6163 56.4593 40.0978C57.9166 36.5794 58.6667 32.8083 58.6667 29C58.6667 25.1917 57.9166 21.4206 56.4593 17.9022C55.0019 14.3837 52.8657 11.1868 50.1728 8.4939C47.4799 5.801 44.283 3.66488 40.7646 2.20749C37.2461 0.750107 33.4751 0 29.6667 0ZM44.7709 40.748C44.7709 42.5938 43.2605 44.1042 41.4148 44.1042H17.9187C16.073 44.1042 14.5626 42.5938 14.5626 40.748V17.252C14.5626 15.4062 16.073 13.8958 17.9187 13.8958H41.4148C43.2605 13.8958 44.7709 15.4062 44.7709 17.252V40.748Z" fill="#447095"></path></svg>