<svg width="58" height="58" viewBox="0 0 58 58" fill="none" xmlns="http://www.w3.org/2000/svg"><path d="M29 0C12.9853 0 0 12.9853 0 29C0 45.0147 12.9853 58 29 58C45.0147 58 58 45.0147 58 29C58 12.9853 45.0147 0 29 0ZM42.9368 21.86C42.9562 22.1643 42.9562 22.4815 42.9562 22.7922C42.9562 32.2949 35.7192 43.2411 22.4944 43.2411C18.4163 43.2411 14.6359 42.0565 11.4511 40.0174C12.0337 40.0821 12.5904 40.108 13.1859 40.108C16.552 40.108 19.6462 38.9688 22.1125 37.0397C18.9536 36.975 16.2996 34.9036 15.3933 32.0554C16.5002 32.2172 17.4971 32.2172 18.6364 31.9259C17.0098 31.5954 15.5479 30.7121 14.4988 29.4258C13.4498 28.1396 12.8784 26.5299 12.8817 24.8701V24.7795C13.8333 25.3167 14.9531 25.6469 16.1248 25.6922C15.1398 25.0358 14.3321 24.1465 13.7731 23.1031C13.2142 22.0597 12.9213 20.8946 12.9205 19.7109C12.9205 18.371 13.2701 17.1475 13.898 16.0859C15.7034 18.3084 17.9562 20.1261 20.5102 21.4209C23.0641 22.7157 25.8618 23.4586 28.7217 23.6013C27.7054 18.7141 31.3563 14.7589 35.7451 14.7589C37.8165 14.7589 39.6808 15.6263 40.9949 17.0246C42.6196 16.7203 44.1732 16.1118 45.5585 15.2962C45.0212 16.9598 43.8949 18.3645 42.3996 19.2513C43.8496 19.096 45.2478 18.6946 46.5424 18.1315C45.565 19.5685 44.3415 20.8438 42.9368 21.86Z" fill="#447095"></path></svg>