<svg xmlns="http://www.w3.org/2000/svg" xmlns:xlink="http://www.w3.org/1999/xlink" width="1024" zoomAndPan="magnify" viewBox="0 0 768 767.999994" height="1024" preserveAspectRatio="xMidYMid meet" version="1.0"><path fill="rgb(9.799194%, 20.388794%, 32.159424%)" d="M 715.683594 314.203125 L 453.847656 314.203125 L 453.847656 52.367188 C 453.847656 23.460938 430.386719 0 401.480469 0 L 366.570312 0 C 337.664062 0 314.203125 23.460938 314.203125 52.367188 L 314.203125 314.203125 L 52.367188 314.203125 C 23.460938 314.203125 0 337.664062 0 366.570312 L 0 401.480469 C 0 430.386719 23.460938 453.847656 52.367188 453.847656 L 314.203125 453.847656 L 314.203125 715.683594 C 314.203125 744.59375 337.664062 768.050781 366.570312 768.050781 L 401.480469 768.050781 C 430.386719 768.050781 453.847656 744.59375 453.847656 715.683594 L 453.847656 453.847656 L 715.683594 453.847656 C 744.59375 453.847656 768.050781 430.386719 768.050781 401.480469 L 768.050781 366.570312 C 768.050781 337.664062 744.59375 314.203125 715.683594 314.203125 Z M 715.683594 314.203125 " fill-opacity="1" fill-rule="nonzero"/></svg>