<svg width="89" height="120" viewBox="0 0 89 120" fill="none" xmlns="http://www.w3.org/2000/svg">
<path d="M58.7161 0H30.0722C24.0267 0 19.1083 4.91842 19.1083 10.9637V32.6181H69.6798V10.9637C69.68 4.91842 64.7616 0 58.7161 0Z" fill="#FF4949"/>
<path d="M58.716 0H44.3938V32.6181H69.6797V10.9637C69.6799 4.91842 64.7615 0 58.716 0Z" fill="#EA0016"/>
<path d="M71.6089 25.6031H17.1794C7.70663 25.6031 0 33.3098 0 42.7825V119.249H88.7881V42.7825C88.7881 33.3098 81.0817 25.6031 71.6089 25.6031V25.6031Z" fill="#F9F7F7"/>
<path d="M71.6088 25.6031H44.394V119.248H88.788V42.7825C88.788 33.3098 81.0816 25.6031 71.6088 25.6031V25.6031Z" fill="#F0EBE8"/>
<path d="M88.7881 98.0878H0V52.1113H88.7881V98.0878Z" fill="#75E2F8"/>
<path d="M44.394 52.1113H88.788V98.0878H44.394V52.1113Z" fill="#2AD8F6"/>
<path d="M17.5897 71.5041H44.3941V78.5191H17.5897V71.5041Z" fill="#ABABC5"/>
<path d="M71.5401 71.5041H66.8055V66.7693H59.7905V71.5041H55.0559V78.5191H59.7905V83.2537H66.8055V78.5191H71.5401V71.5041Z" fill="#EA0016"/>
</svg>
