<svg width="93" height="93" viewBox="0 0 93 93" fill="none" xmlns="http://www.w3.org/2000/svg">
<g clip-path="url(#clip0)">
<path d="M51.2287 12.6102C54.7109 12.6102 57.5338 9.78729 57.5338 6.30508C57.5338 2.82288 54.7109 0 51.2287 0C47.7465 0 44.9236 2.82288 44.9236 6.30508C44.9236 9.78729 47.7465 12.6102 51.2287 12.6102Z" fill="#E64C3C"/>
<path d="M60.0558 15.9046C59.2519 15.9046 59.6302 16.0465 51.7646 9.06358C51.1561 8.47904 51.1158 7.51891 51.6732 6.88544C52.2307 6.25196 53.1881 6.16986 53.8453 6.69917L61.0962 13.1461C61.5875 13.5795 61.7596 14.2716 61.5284 14.8846C61.2972 15.4976 60.711 15.9037 60.0558 15.9046V15.9046Z" fill="#E57E25"/>
<path d="M86.6949 12.6101C89.7419 12.6101 92.2119 10.1401 92.2119 7.09318C92.2119 4.04626 89.7419 1.57623 86.6949 1.57623C83.648 1.57623 81.178 4.04626 81.178 7.09318C81.178 10.1401 83.648 12.6101 86.6949 12.6101Z" fill="#E64C3C"/>
<path d="M77.6785 16.5035C77.0185 16.5036 76.4284 16.0924 76.1997 15.4733C75.9711 14.8542 76.1524 14.1582 76.6539 13.7293L84.8821 6.68334C85.5437 6.11749 86.5388 6.19512 87.1046 6.85673C87.6705 7.51835 87.5928 8.51342 86.9312 9.07928C78.0253 16.7715 78.4824 16.5035 77.6785 16.5035V16.5035Z" fill="#E57E25"/>
<path d="M49.1953 41.7081L44.7345 46.1532C44.4385 46.4516 44.0356 46.6195 43.6153 46.6195C43.195 46.6195 42.7921 46.4516 42.4962 46.1532L38.0511 41.7081L35.8128 43.9307C35.198 44.5418 34.205 44.5418 33.5902 43.9307L31.3519 41.7081C31.0535 41.4121 30.8857 41.0093 30.8857 40.589C30.8857 40.1687 31.0535 39.7658 31.3519 39.4698L27.5846 35.7025C26.0224 37.4267 23.6375 38.1504 21.3806 37.5852C19.1236 37.0199 17.3613 35.2577 16.7961 33.0007C16.2308 30.7437 16.9545 28.3589 18.6787 26.7966L7.9443 16.0622C7.33314 15.4474 7.33314 14.4545 7.9443 13.8396L9.06345 12.7205L3.49922 7.15626C3.20081 6.86028 3.03296 6.4574 3.03296 6.0371C3.03296 5.61681 3.20081 5.21392 3.49922 4.91795L7.9443 0.457103C8.24233 0.138775 8.65891 -0.0418701 9.09498 -0.0418701C9.53105 -0.0418701 9.94763 0.138775 10.2457 0.457103L15.7468 6.0371L16.866 4.91795C17.162 4.61954 17.5649 4.45169 17.9851 4.45169C18.4054 4.45169 18.8083 4.61954 19.1043 4.91795L42.4962 28.3729C42.7921 28.0745 43.195 27.9066 43.6153 27.9066C44.0356 27.9066 44.4385 28.0745 44.7345 28.3729L46.957 30.5954C47.2554 30.8914 47.4233 31.2943 47.4233 31.7146C47.4233 32.1349 47.2554 32.5377 46.957 32.8337L44.7345 35.0563L49.1953 39.4068C49.5136 39.7048 49.6943 40.1214 49.6943 40.5574C49.6943 40.9935 49.5136 41.4101 49.1953 41.7081Z" fill="#7F8C8D"/>
<path d="M13.3982 78.8135H54.3813C58.734 78.8135 62.2626 82.3421 62.2626 86.6949V91.4237H5.51685V86.6949C5.51685 82.3421 9.04545 78.8135 13.3982 78.8135Z" fill="#3B97D3"/>
<path d="M49.2268 63.0508C44.9861 69.0147 37.6858 71.9974 30.4821 70.7094C23.2785 69.4213 17.4641 64.0936 15.5527 57.0298C13.6414 49.9659 15.9762 42.4333 21.5475 37.6886L16.5507 31.5254C8.1916 38.6477 5.02434 50.1495 8.559 60.547C12.0937 70.9446 21.6147 78.1329 32.5827 78.685C43.5507 79.237 53.7454 73.0409 58.3062 63.0508H49.2268Z" fill="#285680"/>
<path d="M28.7198 33.8268H28.7039" stroke="black" stroke-width="17.3559" stroke-linecap="round" stroke-linejoin="round"/>
<path d="M29.161 31.5255C29.1583 34.4264 27.1765 36.9511 24.3593 37.6428C21.542 38.3345 18.6164 37.0146 17.2705 34.4448C15.9246 31.875 16.5058 28.7185 18.6788 26.7967C20.5373 25.1529 23.187 24.7519 25.4487 25.7722C27.7103 26.7925 29.1633 29.0443 29.161 31.5255Z" fill="#35495E"/>
<path d="M42.4963 28.3729L31.3521 39.4068L27.5848 35.7026C29.8419 33.2115 29.7478 29.3876 27.3708 27.0106C24.9938 24.6336 21.17 24.5395 18.6789 26.7966L7.94445 16.0622C7.33329 15.4474 7.33329 14.4545 7.94445 13.8397L16.8661 4.91798C17.1621 4.61957 17.565 4.45172 17.9853 4.45172C18.4056 4.45172 18.8085 4.61957 19.1045 4.91798L42.4963 28.3729Z" fill="#3B97D3"/>
<path d="M46.9571 32.7864C40.652 39.0915 39.7693 39.99 35.8128 43.9307C35.198 44.5418 34.2051 44.5418 33.5903 43.9307L31.352 41.7081C31.0536 41.4122 30.8857 41.0093 30.8857 40.589C30.8857 40.1687 31.0536 39.7658 31.352 39.4698L42.4962 28.3729C42.7922 28.0745 43.1951 27.9066 43.6154 27.9066C44.0357 27.9066 44.4386 28.0745 44.7345 28.3729L46.9571 30.5954C47.5476 31.2064 47.5476 32.1755 46.9571 32.7864V32.7864Z" fill="#2980BA"/>
<path d="M65.4152 93H2.36436C1.49381 93 0.788086 92.2943 0.788086 91.4237C0.788086 90.5532 1.49381 89.8475 2.36436 89.8475H65.4152C66.2858 89.8475 66.9915 90.5532 66.9915 91.4237C66.9915 92.2943 66.2858 93 65.4152 93Z" fill="#35495E"/>
<path d="M73.1862 35.3716C67.2782 37.6925 60.5659 35.2602 57.5161 29.6934C54.4663 24.1266 56.0297 17.1605 61.1659 13.4309C66.3021 9.70118 73.41 10.3706 77.7595 14.9936C82.1091 19.6165 82.3445 26.752 78.309 31.6516L73.1862 35.3716Z" fill="#F29C1F"/>
<path d="M76.4491 39.8954L71.9882 33.7322C71.3124 32.8171 71.1762 31.611 71.6308 30.5682C72.0855 29.5254 73.0619 28.8043 74.1923 28.6767C75.3227 28.549 76.4353 29.0341 77.1111 29.9492L81.8399 36.3804L76.4491 39.8954Z" fill="#E57E25"/>
<path d="M62.2628 25.2203C61.3922 25.2203 60.6865 24.5146 60.6865 23.6441C60.6865 17.8434 66.2508 15.9203 66.4872 15.8415C67.3142 15.5629 68.2105 16.0076 68.4891 16.8346C68.7676 17.6616 68.323 18.5579 67.496 18.8364C65.4146 19.5488 63.9699 21.4481 63.8391 23.6441C63.8391 24.5146 63.1333 25.2203 62.2628 25.2203Z" fill="#FAC176"/>
<path d="M63.8389 63.0509H46.5C44.7589 63.0509 43.3474 61.6394 43.3474 59.8983C43.3474 58.1572 44.7589 56.7458 46.5 56.7458H63.8389C65.58 56.7458 66.9915 58.1572 66.9915 59.8983C66.9915 61.6394 65.58 63.0509 63.8389 63.0509Z" fill="#2980BA"/>
<path d="M55.1694 56.7458C57.3458 56.7458 59.1101 54.9815 59.1101 52.8051C59.1101 50.6287 57.3458 48.8644 55.1694 48.8644C52.9931 48.8644 51.2288 50.6287 51.2288 52.8051C51.2288 54.9815 52.9931 56.7458 55.1694 56.7458Z" fill="#F29C1F"/>
<path d="M83.5423 53.5932C88.3303 53.5932 92.2118 49.7117 92.2118 44.9237C92.2118 40.1357 88.3303 36.2542 83.5423 36.2542C78.7543 36.2542 74.8728 40.1357 74.8728 44.9237C74.8728 49.7117 78.7543 53.5932 83.5423 53.5932Z" fill="#E64C3C"/>
</g>
<defs>
<clipPath id="clip0">
<rect width="93" height="93" fill="white"/>
</clipPath>
</defs>
</svg>
