<svg width="91" height="118" viewBox="0 0 91 118" fill="none" xmlns="http://www.w3.org/2000/svg">
<path d="M18.4936 118H17.0296C7.63948 118 0 110.361 0 100.97C0 91.5803 7.63948 83.9408 17.0296 83.9408H28.5881V72.9457H35.5232V83.9408H60.7977C67.4209 83.9408 72.9168 79.8378 74.473 73.7312L81.1934 75.4437C78.841 84.6743 70.6446 90.8759 60.7977 90.8759H35.523V100.97C35.523 110.361 27.8837 118 18.4936 118ZM17.0294 90.8759C11.4633 90.8759 6.93487 95.4043 6.93487 100.97C6.93487 106.537 11.4633 111.065 17.0294 111.065H18.4934C24.0595 111.065 28.5879 106.537 28.5879 100.97V90.8759H17.0294Z" fill="#0065A3"/>
<path d="M74.4727 73.7312C72.9165 79.8378 67.4208 83.9408 60.7974 83.9408H35.5229V72.9457H31.9011V111.451C34.1668 108.558 35.5229 104.921 35.5229 100.97V90.8757H60.7974C70.6443 90.8757 78.8406 84.6741 81.193 75.4435L74.4727 73.7312Z" fill="#00317E"/>
<path d="M78.5206 74.617C83.287 74.617 87.1509 70.7531 87.1509 65.9868C87.1509 61.2204 83.287 57.3565 78.5206 57.3565C73.7543 57.3565 69.8904 61.2204 69.8904 65.9868C69.8904 70.7531 73.7543 74.617 78.5206 74.617Z" fill="#00317E"/>
<path d="M78.5207 78.0846C71.85 78.0846 66.4229 72.6574 66.4229 65.9868C66.4229 59.3159 71.85 53.8887 78.5207 53.8887C85.1915 53.8887 90.6185 59.3159 90.6185 65.9868C90.6187 72.6576 85.1915 78.0846 78.5207 78.0846ZM78.5207 60.8238C75.674 60.8238 73.3579 63.1399 73.3579 65.9868C73.3579 68.8334 75.674 71.1495 78.5207 71.1495C81.3675 71.1495 83.6834 68.8334 83.6834 65.9868C83.6836 63.1399 81.3675 60.8238 78.5207 60.8238V60.8238Z" fill="#8A8AA9"/>
<path d="M31.9013 76.4135C14.8206 76.4135 0.924561 62.5174 0.924561 45.4367V14.9431C0.924561 8.80668 5.91691 3.81433 12.0531 3.81433H15.4175V10.7494H12.0531C9.74092 10.7494 7.85966 12.6307 7.85966 14.9431V45.4367C7.85966 58.6934 18.6447 69.4784 31.9013 69.4784C45.158 69.4784 55.943 58.6934 55.943 45.4367V15.3615C55.943 13.0493 54.0617 11.1681 51.7496 11.1681H48.3209V4.23298H51.7496C57.8858 4.23298 62.8781 9.22532 62.8781 15.3615V45.4367C62.8781 62.5172 48.9818 76.4135 31.9013 76.4135Z" fill="#BDBDD2"/>
<path d="M51.7494 4.23315H48.3207V11.1683H51.7494C54.0615 11.1683 55.9428 13.0495 55.9428 15.3617V45.4369C55.9428 58.6935 45.1578 69.4785 31.9011 69.4785V76.4136C48.9818 76.4136 62.8779 62.5176 62.8779 45.4369V15.3617C62.8781 9.22527 57.8858 4.23315 51.7494 4.23315V4.23315Z" fill="#ABABC5"/>
<path d="M42.9269 0C38.9117 0 35.645 3.26666 35.645 7.28185C35.645 11.297 38.9117 14.5637 42.9269 14.5637H50.0545V0H42.9269Z" fill="#00317E"/>
<path d="M20.8115 0H13.6838V14.5637H20.8115C24.8267 14.5637 28.0934 11.297 28.0934 7.28185C28.0934 3.26666 24.8269 0 20.8115 0Z" fill="#0065A3"/>
</svg>
